<?xml version="1.0" standalone="no"?>
<!DOCTYPE svg PUBLIC "-//W3C//DTD SVG 20010904//EN"
 "http://www.w3.org/TR/2001/REC-SVG-20010904/DTD/svg10.dtd">
<svg version="1.0" xmlns="http://www.w3.org/2000/svg"
 width="209.000000pt" height="209.000000pt" viewBox="0 0 209.000000 209.000000"
 preserveAspectRatio="xMidYMid meet">
<metadata>
Created by potrace 1.11, written by Peter Selinger 2001-2013
</metadata>
<g transform="translate(0.000000,209.000000) scale(0.100000,-0.100000)"
fill="#000000" stroke="none">
<path d="M760 1879 c-88 -23 -131 -46 -275 -149 -267 -193 -336 -261 -406
-405 -122 -253 -97 -491 73 -667 128 -132 238 -184 528 -248 80 -18 161 -38
180 -44 21 -8 59 -10 94 -7 l60 6 -57 37 c-59 39 -73 45 -62 28 4 -7 -4 -9
-22 -5 -15 2 -53 7 -83 11 -175 18 -306 52 -407 106 -76 41 -201 167 -232 236
-24 51 -24 52 -5 67 29 22 32 19 27 -32 l-4 -48 25 28 c30 32 32 56 11 97 -26
50 -46 54 -71 12 l-22 -36 -7 54 c-3 30 -5 103 -2 161 3 91 8 115 31 162 15
31 41 67 57 81 27 23 29 30 23 62 l-7 36 32 -16 c34 -18 37 -26 19 -44 -15
-15 -10 -15 30 -1 38 13 45 39 22 84 -17 34 -17 36 0 45 11 6 36 14 57 18 31
6 42 16 61 50 13 23 33 47 45 54 20 10 21 10 8 -6 -20 -24 -7 -30 29 -11 17 9
38 31 45 48 13 32 75 87 75 67 0 -5 -9 -15 -20 -22 -18 -11 -28 -38 -15 -38
17 0 76 49 86 72 7 17 26 32 50 42 49 20 86 21 42 1 -18 -8 -33 -18 -33 -24 0
-15 72 8 98 32 19 18 35 22 83 20 32 -1 66 -6 76 -12 14 -7 10 -9 -20 -7 -30
3 -35 1 -26 -10 21 -25 50 -27 74 -4 l23 21 26 -23 c24 -21 47 -76 26 -63 -5
3 -35 10 -67 16 -32 6 -72 18 -88 28 -37 21 -62 19 -81 -7 -16 -23 -80 -38
-98 -23 -10 8 -21 1 -44 -29 -29 -35 -37 -39 -85 -42 -49 -3 -52 -4 -55 -33
-4 -28 -16 -44 -57 -67 -18 -10 -19 -10 -6 5 8 10 9 17 3 17 -15 0 -62 -22
-63 -29 -11 -86 -50 -143 -136 -198 -54 -34 -64 -52 -40 -72 10 -7 13 -39 12
-113 -4 -276 89 -423 353 -552 99 -49 276 -107 401 -131 13 -2 30 -6 39 -9 49
-15 97 -20 194 -20 59 0 106 -1 104 -3 -2 -2 -32 -10 -67 -17 -37 -8 -63 -18
-62 -25 2 -6 -12 -11 -35 -12 -20 -1 -62 -2 -92 -4 -30 -2 -68 -3 -84 -4 -41
-1 -21 -22 57 -56 96 -44 156 -40 264 16 47 24 85 48 84 54 -1 5 -18 8 -39 7
l-37 -2 34 18 c24 14 30 21 20 25 -8 3 15 5 50 4 48 -1 65 -6 68 -17 3 -10 2
-11 -4 -3 -6 8 -17 6 -43 -8 l-35 -19 30 5 c17 2 63 5 103 7 68 2 72 3 66 23
-12 36 -44 74 -117 137 -152 130 -157 141 -182 388 -3 25 -7 70 -10 100 l-6
55 46 -50 c26 -27 62 -66 81 -86 34 -37 88 -59 142 -59 21 0 70 27 168 92
l139 93 -47 8 c-34 7 -67 5 -115 -6 -38 -8 -69 -14 -71 -13 -1 2 -5 76 -8 166
-5 169 -1 190 37 190 43 0 55 -72 35 -199 -3 -14 -7 -51 -11 -81 l-6 -55 23
26 c13 14 35 41 50 60 l27 34 2 -35 c1 -19 1 -38 1 -42 -1 -3 4 -11 11 -17 10
-8 28 20 78 121 40 84 81 151 112 185 26 29 47 57 47 62 0 16 -46 48 -240 168
-221 137 -266 159 -350 168 -36 3 -76 8 -90 10 -14 2 -50 6 -80 10 -81 8 -150
16 -190 20 -211 24 -298 24 -380 4z m463 -160 c12 -7 45 -35 72 -63 56 -58
116 -90 208 -111 60 -13 79 -16 177 -30 173 -24 305 -46 312 -53 5 -5 -7 -36
-26 -70 -19 -33 -37 -70 -41 -81 -14 -46 -25 -19 -20 49 8 92 -13 96 -52 10
-15 -33 -31 -60 -35 -60 -3 0 -6 30 -5 66 2 52 -2 68 -15 78 -15 11 -287 60
-388 70 -51 5 -80 -11 -80 -45 0 -59 115 -319 192 -431 44 -66 55 -69 126 -37
26 12 61 26 77 30 29 9 28 7 -15 -31 -50 -44 -49 -50 4 -19 53 31 43 16 -12
-20 -90 -58 -150 -38 -232 76 -229 318 -290 439 -293 578 -1 67 5 105 18 105
4 0 16 -5 28 -11z m321 -49 c38 -11 71 -22 74 -25 3 -2 -10 -11 -29 -19 -39
-16 -66 -7 -108 38 -29 31 -25 32 63 6z m-565 6 c-2 -2 -28 -6 -57 -9 -53 -6
-146 -45 -242 -102 l-45 -27 30 26 c76 66 192 114 274 115 24 1 42 -1 40 -3z
m70 -13 c3 -2 -9 -3 -27 -1 -18 1 -32 6 -32 10 0 8 49 0 59 -9z m-589 -355 c0
-7 21 -34 48 -61 l47 -48 1 -157 c0 -125 4 -165 17 -196 42 -96 147 -185 302
-255 50 -23 113 -52 140 -66 l50 -25 -45 6 c-62 7 -262 75 -348 118 -271 133
-344 325 -245 644 15 48 33 69 33 40z m260 -108 c-51 -51 -23 -64 284 -135 68
-16 122 -23 142 -19 l33 6 -3 -43 c-4 -51 -28 -73 -71 -65 -286 48 -421 78
-438 95 -18 17 -18 20 -2 50 9 18 18 49 20 69 2 20 11 42 21 49 27 20 36 15
14 -7z m269 -30 c72 -24 130 -45 127 -47 -6 -6 -268 78 -281 90 -7 7 -5 8 6 4
8 -3 75 -24 148 -47z m51 -236 c103 -15 140 -42 109 -81 -13 -15 -76 -14 -159
1 -28 5 -58 10 -180 26 -111 15 -148 27 -155 51 -9 27 3 57 23 61 9 2 85 -9
167 -24 83 -15 170 -30 195 -34z m-275 -68 c70 -9 117 -16 140 -20 11 -2 61
-9 110 -16 92 -13 135 -30 135 -54 0 -16 -41 -25 -90 -21 -19 2 -85 6 -145 9
-150 8 -255 41 -255 82 0 13 38 36 50 29 3 -2 28 -6 55 -9z m507 -35 c13 -11
30 -39 37 -62 9 -30 31 -60 73 -100 55 -52 58 -58 36 -61 -13 -2 -57 14 -100
36 -58 29 -79 45 -87 66 -5 16 -8 30 -6 32 2 2 5 27 6 56 2 28 6 52 9 52 4 0
18 -9 32 -19z m-417 -85 c163 -14 213 -22 266 -42 31 -13 37 -19 29 -29 -9
-11 -2 -18 32 -34 47 -22 95 -57 88 -64 -3 -3 -23 -7 -45 -11 -22 -3 -67 -12
-100 -19 -88 -20 -155 6 -155 60 0 19 5 23 31 23 38 0 118 20 124 31 3 4 -15
11 -40 15 -39 5 -51 3 -85 -20 -44 -29 -83 -28 -155 3 -73 32 -140 107 -87 97
9 -2 53 -7 97 -10z m557 -188 c4 -7 5 -22 2 -33 -15 -49 -63 -75 -127 -68 -36
3 -147 46 -147 57 0 6 96 34 145 42 21 3 47 9 59 14 27 10 57 4 68 -12z m122
-37 c14 -16 16 -21 5 -21 -12 0 -11 -2 1 -10 9 -5 17 -5 20 1 4 5 15 0 25 -11
17 -19 17 -22 3 -36 -14 -14 -18 -13 -42 19 -16 21 -39 37 -56 41 -31 6 -38
24 -18 44 13 13 34 4 62 -27z"/>
<path d="M690 1090 c-16 -16 -18 -25 -10 -40 9 -17 21 -19 148 -17 150 2 208
-11 272 -58 37 -27 56 -21 45 14 -4 13 -20 24 -47 31 -58 16 -372 90 -380 90
-5 0 -17 -9 -28 -20z"/>
<path d="M199 1287 c-14 -12 -29 -30 -33 -41 -5 -15 -2 -18 19 -14 30 6 29 8
8 -37 -9 -19 -14 -37 -11 -41 11 -11 48 16 64 48 13 26 14 38 5 70 -7 21 -15
38 -19 38 -4 -1 -19 -11 -33 -23z"/>
<path d="M248 1164 c-16 -8 -28 -19 -28 -25 0 -14 31 -59 40 -59 8 0 25 89 18
95 -2 2 -15 -3 -30 -11z"/>
<path d="M163 1112 c-36 -6 -47 -28 -22 -45 17 -12 20 -21 14 -49 l-6 -33 30
33 c47 49 38 103 -16 94z"/>
<path d="M198 1005 c-23 -31 -23 -41 3 -48 18 -5 20 -11 14 -36 -8 -36 4 -40
30 -11 13 15 16 28 10 57 -7 37 -21 63 -34 63 -3 0 -14 -11 -23 -25z"/>
<path d="M274 854 c-5 -21 -2 -31 17 -45 42 -32 51 -23 27 26 -25 52 -35 56
-44 19z"/>
<path d="M272 757 c-47 -21 -32 -79 24 -90 20 -3 24 -1 19 11 -5 13 -2 13 14
-2 10 -10 25 -18 33 -20 7 -1 18 -5 25 -9 8 -5 11 1 8 20 -2 16 -4 31 -4 34
-1 4 -12 18 -26 32 -30 29 -62 37 -93 24z"/>
<path d="M620 522 c45 -24 69 -29 127 -30 66 -1 139 -21 171 -45 7 -5 15 -7
18 -4 8 8 -80 51 -155 76 -35 11 -98 23 -140 26 l-76 6 55 -29z"/>
<path d="M1030 419 c0 -5 12 -11 28 -15 15 -3 37 -9 50 -14 16 -7 22 -6 22 4
0 8 -15 19 -32 24 -39 12 -68 12 -68 1z"/>
</g>
</svg>
